<svg xmlns="http://www.w3.org/2000/svg" width="1840" height="1330" fill="none" viewBox="0 0 1840 1330">
  <path fill="#FFCE1D" d="M918.659 1096.63c256.481 0 464.401-207.92 464.401-464.403 0-256.483-207.92-464.404-464.401-464.404-256.484 0-464.404 207.921-464.404 464.404s207.92 464.403 464.404 464.403Z"/>
  <path fill="#fff" d="m514.708 533.465-2.424-.418c.123-.713 12.893-71.905 62.261-126.502l1.821 1.648c-48.889 54.068-61.535 124.571-61.658 125.272Zm67.293-172.043-2.03-1.378c.393-.578 39.908-57.894 103.3-85.856l.997 2.251c-62.729 27.667-101.874 84.417-102.267 84.983ZM1355.95 623.8h-2.46c0-88.292-40.07-168.317-40.48-169.117l2.19-1.107c.41.8 40.75 81.329 40.75 170.224Zm-47.91-46.034c-1.89-35.172-13.34-64.771-13.45-65.066l2.28-.898c.11.295 11.7 30.251 13.63 65.828l-2.46.136Z"/>
  <path fill="#000" d="m437.525 516.735-2.412-.516c.148-.714 15.685-71.537 70.134-143.111l1.957 1.489c-54.117 71.143-69.532 141.437-69.679 142.138Zm76.912-197.928-1.882-1.575c.147-.172 14.578-17.37 32.982-34.741l1.685 1.784c-18.306 17.272-32.65 34.36-32.785 34.532Zm60.846-34.618-1.87-1.6c.209-.246 21.295-24.604 61.535-52.062 37.115-25.33 98.601-58.57 180.792-73.148l.43 2.423c-81.76 14.505-142.926 47.573-179.832 72.755-39.982 27.274-60.858 51.386-61.055 51.632Zm806.597 189.759c-20.7-84.392-86.4-157.245-87.06-157.971l1.82-1.661c.67.726 66.78 74.059 87.63 159.042l-2.39.59Zm18.25 122.861c-2.45-30.694-8.31-57.561-12.79-74.698l2.39-.628c4.5 17.236 10.4 44.251 12.86 75.129l-2.46.197Zm13.34 116.009-2.4-.554c2.12-9.153 3.97-19.08 5.49-29.5l2.44.356c-1.54 10.482-3.41 20.471-5.53 29.698Zm10.08-75.744-2.46-.136c1.93-35.429.22-69.592-4.27-85.007l2.36-.689c4.57 15.661 6.31 50.156 4.37 85.832Zm-38.72 112.085-2.33-.751c4.32-13.434 7.98-32.133 10.9-55.544l2.43.308c-2.93 23.558-6.63 42.393-11 55.987Zm13.22-76.544-2.45-.222c.9-9.743 1.29-16.214 1.29-16.288l2.46.148c-.01.062-.41 6.594-1.3 16.362Zm-249.12-463.617c-64.48-41.04-172.464-55.138-173.546-55.273l.307-2.436c.271.037 27.619 3.555 62.619 12.13 32.33 7.922 77.98 21.898 111.95 43.512l-1.33 2.067Zm-53.79-44.176c-17.29-7.628-57.48-16.694-57.89-16.781l.54-2.398c.41.086 40.83 9.202 58.35 16.94l-1 2.239ZM571.74 987.24a356.985 356.985 0 0 1-15.316-12.819l1.636-1.845a350.933 350.933 0 0 0 15.218 12.733l-1.538 1.931Zm-41.568-38.628c-70.504-76.888-84.011-160.788-84.147-161.625l2.436-.369c.123.837 13.545 84.023 83.519 160.333l-1.808 1.661Zm19.326-6.36c-25.244-20.815-48.839-68.314-49.073-68.793l2.202-1.083c.234.467 23.608 47.498 48.433 67.981l-1.562 1.895Zm244.516 157.958c-35.885-6.86-71.339-19.07-105.379-36.28l1.107-2.2c33.843 17.1 69.076 29.23 104.74 36.06l-.468 2.42Zm-148.855-61.63c-17.641-11.81-27.52-20.57-27.618-20.66l1.636-1.83c.099.08 9.866 8.75 27.348 20.44l-1.366 2.05Zm295.779 87.48-.123-2.46c9.104-.45 18.011-1.13 26.462-2.05l.271 2.45c-8.501.93-17.457 1.61-26.61 2.06Zm-32.342.56c-56.319-.61-103.51-9.05-103.99-9.14l.443-2.42c.468.08 47.474 8.5 103.572 9.1l-.025 2.46Z"/>
  <path fill="#fff" d="M639.427 965.219c-77.602-54.412-106.192-140.723-106.475-141.584l2.338-.763c.283.861 28.639 86.41 105.551 140.33l-1.414 2.017Zm169.669 94.151c-60.907-10.7-121.889-51.47-122.492-51.89l1.378-2.04c.603.4 61.166 40.89 121.545 51.49l-.431 2.44Zm-100.2-73.95c-16.214-5.081-35.787-23.226-36.611-23.989l1.673-1.796c.197.184 19.991 18.527 35.664 23.448l-.726 2.337Zm291.414-751.017c-12.366 7.529-66.139 38.997-104.952 68.596a38.389 38.389 0 0 0-13.2 18.552c-5.032 15.365-9.546 32.428-10.826 37.373a4.51 4.51 0 0 0 .443 3.383c3.629 6.398 23.522 28.418 131.905 66.752l25.44-55.028s-16.07-102.39-21-136.59c-.51-3.432-4.45-5.08-7.81-3.038Z"/>
  <path fill="#274D76" d="m1245.09 849.802-133.41 15.673a64.805 64.805 0 0 0-50.34 35.27l-59.72 119.985a12.384 12.384 0 0 1-13.738 6.54l-21.221-4.67c-14.885-3.29-29.759 5.55-34.003 20.18l-3.321 11.48a13.867 13.867 0 0 0 6.938 16.18l97.965 50.77c6.49 3.36 14.48 1.11 18.25-5.15l98.46-160.337 136.07-8.575-41.93-97.346Zm-75.51-102.451 9.73-24.408 80.5 4.318-29.24 110.51-60.99-90.42Zm-10.16-58.989s8.85-22.894 8.71-35.331c-.17-16.546 1.63-50.217-8.92-48.63-6.42.959-8.34 16.534-9.12 23.226-.31 2.645-1.33 5.179-3.11 7.172-2.52 2.842-6.1 3.937-7.98-8.943-3.06-20.988-2.4-61.376-14.59-53.982-6.18 3.752-2.87 40.425-6.36 38.801-3.49-1.624-3.06-57.008-17.92-50.968-4.91 1.993-3.81 28.455-2.8 43.254.07.825-1.14.997-1.32.185-2.01-8.944-5.09-21.972-7.55-29.611-2.64-8.23-8.79-3.925-8.79 2.079 0 12.917 2.19 40.117 2.19 40.117l77.56 72.631Z"/>
  <path fill="#E3E3E3" d="m1366.04 761.843 22.14 38.136-51.67 166.078c-4.85 16.842-24.11 27.348-41.41 24.469l-66.5-7.381c-8.54-1.427-11.6 2.952-8.61 11.072l28.7 131.693c4.87 13.25-2.68 27.82-16.33 31.47l-98.96 26.45c-9.58 2.56-19.15-4.13-20.02-14.01l-5.7-33.99c-.23-2.6-.97-13.02 4.92-17.23 8.61-6.15 22.15-14.76 22.15-14.76 4.56-2.45 5.03-9.77 3.69-14.76l-37.6-146.2c-6.14-22.87 8.1-40.597 31.46-44.484 29.52-4.921 78.73-15.993 78.73-15.993l21.07-137.476c2.77-10.912 12.85-18.379 24.1-17.838l32.33 1.538 77.51 33.216Z"/>
  <path fill="#E3E3E3" d="M1353.33 725.7c6.73-28.465-10.9-56.99-39.37-63.712-28.46-6.721-56.99 10.906-63.71 39.371-6.72 28.466 10.91 56.99 39.37 63.712 28.47 6.721 56.99-10.906 63.71-39.371Z"/>
  <path fill="#fff" d="m820.845 712.806 175.994-159.213c9.091-8.23 22.391-7.578 33.151-1.71 21.77 11.871 59.09 33.092 92.38 69.162 27.95 30.288 74.39 78.377 79.88 119.084.62 4.663-1 9.337-4.26 12.72-53.66 55.594-162.82 157.984-175.02 168.391-28.887 24.641-103.794-30.989-146.47-80.591-17.826-20.704-77.959-106.806-55.655-127.843Z"/>
  <path fill="#E3E3E3" d="M1394.21 771.585c-16.34-16.079-44.26-15.119-61.49-.357l-61.05 55.606c-3.35 2.78-8.31 2.35-11.12-.96l-43.26-50.561a50.934 50.934 0 0 1-12.03-28.972l-1.56-19.277a12.13 12.13 0 0 0-.94-3.789l-7.88-20.299c-1.08-2.792-4.85-3.137-6.49-.627-2.21 3.408-3.42 8.538-3.42 13.631 0 9.841 2.32 20.47-1.37 20.47-4.92 0-10.77-9.669-13.27-18.748-2.86-10.444-4.29-18.773-9.34-23.398-2.29-2.092-6.36-.714-6.99 2.767-1.47 8.021.22 23.128.35 31.703.04 2.46-2.16 2.411-2.84-.578-2.08-9.264-7.75-37.571-7.75-37.571-.9-3.727-6.04-4.158-7.53-.615-4.25 10.174-2.67 32.305-1.89 40.535.07.726-.91 1.022-1.24.382-2.06-3.838-5.69-11.392-8.28-21.012-.58-2.141-3.51-2.608-4.59-.677-3.26 5.868-1.6 19.88-.73 25.638.09.541-.65.787-.92.32-1.41-2.485-2.5-4.835-3.59-7.64-1.42-3.629-4.46-1.55-4.71.75-.86 7.763-1.31 18.86 1.99 33.081 1.19 5.13 5.51 20.52 24.86 43.66l103.34 114.409c18.45 23.374 42.1 17.211 55.36 7.382 33.21-24.605 94.53-85.217 94.53-85.217 23.32-19.683 18.44-55.679 3.85-70.036Z"/>
  <path fill="#F2BDBA" d="M932.092 807.742c-61.756-66.013-93.951-85.044-109.673-86.804a5.808 5.808 0 0 0-6.471 5.832c.185 32.157 45.481 96.386 60.539 113.905 34.372 39.969 89.694 83.851 125.003 86.496 2.7.196 4.89-2.153 4.59-4.835-2.14-18.872-17.054-53.736-73.988-114.594Zm-59.787-444.536c4.884 11.761 61.006 47.941 131.345 65.865l2.1-4.514c-27.303-23.928-74.494-47.942-109.53-56.984-12.843-3.309-19.843-4.847-23.915-4.367Z"/>
  <path fill="#000" d="M1007.01 258.108c-6.44-5.376-14.109-8.943-22.757-10.604l.467-2.411c9.067 1.747 17.09 5.487 23.87 11.121l-1.58 1.894Z"/>
  <path fill="#93B4F6" d="m1101.07 666.169-26.04-21.811a19.251 19.251 0 0 0-14.68-4.367c-21.09 2.534-76.257 9.952-94.747 20.114-6.852 3.764-21.688 20.2-21.688 20.2-5.376 5.572-5.401 14.393-.05 20.003l33.856 37.41a6.555 6.555 0 0 0 9.017.677l27.062-22.168a6.567 6.567 0 0 0 .64-9.559l-5.45-5.831c-2.17-2.042-1.17-5.696 1.76-6.324l88.01-18.896c4.38-.971 5.77-6.557 2.31-9.448Zm-40.56 38.149c-4.23-3.001-9.49-3.26-13.48.037l-81.759 67.526c-4.921 4.06-5.228 13.939-1.058 18.773 3.235 3.752 9.756 11.232 12.917 15.07 5.844 7.099 15.439 7.32 20.151 3.027l22.069-20.114c2.01-1.821 5.11-1.698 6.95.283l4.68 5.019a8.76 8.76 0 0 0 12.29.394l24.37-22.513c4.61-4.269 4.65-11.552.06-15.858l-2.25-2.116a4.936 4.936 0 0 1 .05-7.258l11.22-10.223c4.18-3.814 5.67-12.363.39-17.346.01 0-11.12-10.801-16.6-14.701Z"/>
  <path fill="#000" d="M882.281 369.787c15.513 12.216 56.061 34.433 106.142 50.684l1.649-3.456c-20.692-17.58-67.821-39.416-106.782-49.283-1.218-.307-2.005 1.28-1.009 2.055ZM826.48 733.72c7.036-8.907 69.211 49.098 90.285 70.59 36.069 36.77 88.455 107.938 75.83 111.26-7.861 2.066-56.492-25.171-107.828-83.199-39.059-44.165-62.63-93.152-58.287-98.651Z"/>
  <path fill="#274D76" d="m1241.88 220.477-1.82-11.048c-1.51-9.189-10.6-13.692-19.38-10.567-11.52 4.084-26.45 8.931-34.55 15.23-3.21 2.497-4.96 6.434-4.62 10.481 2.96 35.959 6.36 63.983 7.97 76.359.56 4.392-.89 8.809-3.96 11.995l-35.93 37.361 36.43 18.626 68.19-63.541-12.33-84.896Z"/>
  <path fill="#E3E3E3" d="m1003.67 429.071 26.05-56.356a29.087 29.087 0 0 1 24.77-16.817l53.99-2.989a85.211 85.211 0 0 0 37.75-11.208 30.337 30.337 0 0 1 30.48.148 16.836 16.836 0 0 0 19.43-1.685l19.5-16.559a9.29 9.29 0 0 0 3.26-7.676c-1.03-15.673-4.31-66.998-4.73-92.02a8.963 8.963 0 0 1 5.02-8.218c12.97-6.335 33.3-9.423 48.87-6.766 3.85.652 6.87 3.814 7.11 7.713 1.05 17.076-10.61 35.369-10.61 35.369l10.27 77.22a46.7 46.7 0 0 1-18.92 43.98l-64.87 46.896a163.718 163.718 0 0 1-15.33 9.841 166.319 166.319 0 0 1-39.96 16.239l-49.71 13.003-82.37-30.115Z"/>
  <path fill="#274D76" d="m1026.02 378.436 30.2-4.577 23.47 24.937-45.49 43.291-24.06-27.188 15.88-36.463Z"/>
  <path fill="#E3E3E3" d="M1099.9 364.321c5.91-22.613-7.63-45.736-30.24-51.647-22.61-5.91-45.73 7.629-51.64 30.242-5.91 22.612 7.62 45.735 30.24 51.646 22.61 5.911 45.73-7.629 51.64-30.241Z"/>
  <path fill="#93B4F6" d="m950.607 338.096 8.009-12.363a4.063 4.063 0 0 0-1.747-5.917l-3.346-1.501c-2.018-.911-2.276-3.666-.456-4.933l35.763-24.789c1.808-1.255 1.402-4.035-.689-4.736l-16.374-5.401a6.656 6.656 0 0 0-5.77.775l-35.209 23.312a15.041 15.041 0 0 0-5.093 5.696l-4.945 9.645c-2.497 4.872-.357 10.838 4.662 13.003l20.163 8.723a4.057 4.057 0 0 0 5.032-1.514Zm42.282-5.462-1.82-1.132a3.798 3.798 0 0 1-1.452-4.797l2.411-5.29a6.54 6.54 0 0 0-2.768-8.427l-8.082-4.503c-3.174-1.759-7.172-.615-8.907 2.571l-24.42 44.509a6.552 6.552 0 0 0 2.079 8.575l8.649 5.819c3.186 2.14 7.529 1.082 9.386-2.276l7-12.757a3.803 3.803 0 0 1 5.302-1.415l.96.59a4.21 4.21 0 0 0 5.966-1.697l7.222-14.271a4.206 4.206 0 0 0-1.526-5.499Z"/>
  <path fill="#E3E3E3" d="M1131.3 374.831c-11.83-10.567-29.88-9.94-40.97 1.403l-32.94 33.732a10.23 10.23 0 0 1-9.92 2.744l-48.971-12.856a18.637 18.637 0 0 1-8.845-5.253l-14.062-14.91c-1.168-1.243-3.272-1.021-4.023.504-.775 1.563-1.254 4.121-.455 8.267 1.772 9.227-3.58 9.202-9.017 4.847a2403.396 2403.396 0 0 1-10.691-8.599c-2.694-2.177-6.667-.234-6.68 3.223-.024 4.208.579 9.03 3.002 11.724-4.945 14.836 3.359 32.453 16.509 39.564 15.181 8.205 97.003 33.486 97.003 33.486 7.95 2.35 16.55.147 22.39-5.721l48.92-49.134c12.01-12.032 11.43-31.69-1.25-43.021Z"/>
  <path fill="#000" d="M1033.38 325.573c-5.25 3.802-9.33 9.276-11.75 15.796-5.47 14.701-.31 30.497 11.2 39.933 6.2 5.081 15.66 6.286 25.06.48 6.12-3.777 10.74-9.854 13.42-17.063 4.7-12.635 1.53-25.736-6.86-35.123-6.89-7.689-22.34-10.37-31.07-4.023Z"/>
  <path fill="#fff" d="M727.017 802.095c-4.699-17.912-9.928-40.99-12.683-48.827-.111-.307-.492-1.156-.775-1.341-2.473-1.648-16.99-8.599-33.794-5.794-5.204.873-23.067-.787-30.214 4.638-2.215 1.673-3.051 4.502-3.248 7.27-1.009 14.923-3.494 61.031-3.075 76.593.073 2.793 1.993 5.302 4.736 5.856 30.275 6.163 65.484 3.321 81.169-8.526 1.735-1.316 2.707-3.395 2.51-5.572-.394-4.171-1.477-12.302-4.626-24.297Z"/>
  <path fill="#274D76" d="m554.025 682.605-50.02-15.636a5.565 5.565 0 0 1-3.839-6.09l7.726-54.043a6.987 6.987 0 0 0-5.917-7.898l-31.247-4.773c-1.464-.209-4.614.886-4.614 5.093 0 2.054.566 3.198 1.612 4.453l5.647 6.803a5.682 5.682 0 0 1 1.242 4.564l-6.68 41.335 22.87 48.704 55.568 5.942 7.652-28.454Z"/>
  <path fill="#E3E3E3" d="m455.202 612.876 43.476 68.387a8.276 8.276 0 0 0 5.167 3.629l9.743 2.165c3.235.714 6.618.148 9.436-1.574l3.764-2.301a29.876 29.876 0 0 1 24.887-2.928l59.641 19.45-17.432 54.363-58.804-14.344a139.613 139.613 0 0 1-15.058-4.577c-7.332-2.682-18.06-6.778-24.592-9.989-16.842-8.279-22.365-14.726-25.109-19.868-8.722-16.349-30.275-53.403-32.994-57.783-3.53-5.683-11.293-6.175-15.414-7.246-2.547-.664-4.417-1.784-5.45-4.207l-.529-1.23a3.355 3.355 0 0 1 1.169-4.072l28.565-19.954c3.174-2.215 7.566-1.267 9.534 2.079Z"/>
  <path fill="#274D76" d="m637.913 736.918 52.628-.037c4.294-.024 8.722 1.255 10.986 3.851 1.353 1.55 3.765 4.896 5.044 6.508.886 1.131.566 2.595-.714 2.288l-6.384-2.288 1.131 3.912c.775 2.116-1.156 3.075-2.792 2.251l-6.36-3.002c.16 1.772-1.71 3.027-3.297 2.202-2.928-1.525-4.048-2.509-8.095-5.265a5.627 5.627 0 0 0-3.42-.96c-10.851.542-18.502 1.895-25.121 4.601-4.908 2.006-5.031 7.111-5.118 8.71-.147 2.694-3.789 10.765-3.789 10.765l-34.261-7.05-6.065-22.808 35.627-3.678Z"/>
  <path fill="#E3E3E3" d="M617.91 742.996c14.92 0 27.015-12.602 27.015-28.148 0-15.545-12.095-28.147-27.015-28.147s-27.015 12.602-27.015 28.147c0 15.546 12.095 28.148 27.015 28.148Z"/>
  <path fill="#fff" d="M629.658 781.304s-16.62 29.353-19.117 46.699c-.8 5.585 3.272 10.715 8.882 11.379 4.97.578 12.659.861 24.235-.061-1.673-5.229 2.141-51.706 3.777-70.491.221-2.522-2.891-3.875-4.601-2.005l-13.176 14.479Zm56.738-13.987c3.555 7.405 16.976 35.663 19.843 47.006a2.123 2.123 0 0 1-2.19 2.645c-13.126-.874-25.797 1.045-31.198 2.03a2.127 2.127 0 0 1-2.497-2.264l3.666-45.259c.061-.8.578-1.501 1.316-1.796l8.328-3.396a2.134 2.134 0 0 1 2.732 1.034Z"/>
  <path fill="#93B4F6" d="M703.15 805.182c-6.077-15.894-17.628-39.661-17.628-39.661l-2.719 1.107 12.892 50.118c3.58-.037 7.32.185 11.06.542-.172-2.387-1.587-6.803-3.605-12.106Z"/>
  <path fill="#274D76" d="M706.767 817.287c-.012-.209-9.928-8.254-9.928-8.254a5.371 5.371 0 0 0-5.843-.443l-19.376 10.617c4.675-.898 19.905-3.396 35.147-1.92Z"/>
  <path fill="#000" d="M608.744 723.115c-.455 4.909.64 9.522 2.818 13.397 1.464 2.596 4.219 4.269 7.209 4.269h.049c13.458 0 24.37-11.367 24.37-25.391v-.087c-.024-5.917-4.256-10.949-9.854-11.883a21.258 21.258 0 0 0-5.327-.197c-10.112.922-18.293 9.374-19.265 19.892Z"/>
  <path fill="#E3E3E3" d="m695.905 770.909-5.807.677c-.467.049-.701-.541-.332-.824l4.872-3.679c1.907-1.439.763-4.465-1.612-4.281-5.277.406-12.08.972-16.94 1.489-.799.086-1.156-.997-.455-1.403 2.178-1.242 3.322-1.845 5.585-3.112 3.236-1.821.05-4.38-3.653-4.244-6.926.27-13.828 4.441-19.081 4.441-9.497 0-35.787-1.28-35.787-1.28a6.539 6.539 0 0 1-5.179-2.854l-21.356-31.604c-5.979-7.898-17.26-9.362-25.047-3.248-7.394 5.795-8.981 16.362-3.605 24.076l31.272 40.068a15.9 15.9 0 0 0 11.982 6.101l68.092-1.033c8.12.012 13.828-7.344 14.554-11.17a19.632 19.632 0 0 0 4.65-4.368c1.242-1.648-.086-3.998-2.153-3.752Z"/>
  <path fill="#fff" d="M612.115 479.792s5.782 21.726 20.36 51.177c20.668 41.741 30.755 58.46 41.384 76.384 12.942 21.824 52.457 43.955 128.693-3.273 78.991-48.925 66.948-81.157 61.707-92.376-3.1-6.643-28.258-53.662-49.135-89.35a684.77 684.77 0 0 0-20.95-33.499c-4.257-6.384-11.097-10.53-18.724-11.391-20.79-2.35-64.832-2.116-110.116 30.693-62.433 45.247-53.219 71.635-53.219 71.635Z"/>
  <path fill="#F2BDBA" d="M867.432 535.594c2.079-10.493-2.448-21.221-11.268-27.298-22.366-15.427-66.173-16.091-121.717 18.995-61.031 38.554-62.446 71.179-53.367 89.251 17.789 17.555 56.147 28 121.459-12.462 46.809-28.984 61.646-52.112 64.893-68.486Z"/>
  <path fill="#000" d="M692.51 615.349c-7.591-10.863-7.738-44.89 49.232-81.538 57.427-36.943 107.804-26.437 115.21-6.52 7.405 19.917-33.856 56.392-79.816 79.742-41.581 21.135-76.212 20.36-84.626 8.316Zm-49.332 216.074c-5.007-.012-10.285.259-15.562.677-11.884.947-13.483 4.687-12.364 5.831 1.046 1.07 2.633 1.648 4.171 1.821 4.97.578 15.23.91 26.154-.369-2.399-2.645-2.387-3.925-2.399-7.96Z"/>
  <path fill="#fff" d="M726.747 758.176c-3.556-4.391-5.585-3.85-12.081-3.948 2.756 9.521 7.553 29.586 12.351 47.879 4.798 18.281 4.823 27.581 4.823 27.581 6.028-.799 10.887-1.697 22.685-3.678 9.632-1.624 10.493-9.595 5.511-16.977l-33.289-50.857Z"/>
  <path fill="#F2BDBA" d="M727.127 833.379c.689-1.747-.443-3.494-3.334-4.921-5.745-2.854-16.989-5.093-38.899-3.863-20.2 1.132-30.448 6.127-35.602 10.531-2.756 2.362-2.571 4.182-.135 5.659 30.361 7.369 61.768 3.26 77.97-7.406Z"/>
  <path fill="#000" d="M755.779 826.231c2.436-.627 2.818-3.235 1.551-4.146a16.51 16.51 0 0 0-1.944-1.168c-5.991-3.076-15.562-3.039-24.715-1.944 1.156 7.111 1.365 8.821.061 11.232 7.456-.517 24.322-3.789 25.047-3.974Z"/>
  <path fill="#93B4F6" d="M684.87 472.596c-3.58-9.005-3.69-19.043.529-25.625.984-1.538 2.793-4.047 1.883-5.622l-7.923-11.49c-1.673-2.904-6.04-1.083-8.046 1.611-9.878 13.324-13.569 30.682-6.188 49.209 10.839 27.249 30.965 35.221 51.706 30.152 3.359-.824 4.995-4.626 3.26-7.615l-6.052-10.026c-1.329-2.301-3.876-3.568-6.533-3.359-8.956.726-17.813-5.13-22.636-17.235Zm59.087-32.145c-15.685-24.838-40.609-28.627-56.934-22.427-2.854 1.083-4.146 4.392-2.62 7.037l8.907 12.068c1.058 1.821 3.149 2.707 5.203 2.313 8.71-1.685 19.413 1.685 26.462 12.339 5.598 8.464 5.585 21.713-3.297 30.226-1.944 1.87-1.747 5.081-.394 7.418l5.684 9.805c2.251 3.875 7.283 4.244 10.715 1.378 16.091-13.434 17.272-42.737 6.274-60.157Z"/>
  <path fill="#000" d="M1095.34 438.715c-.85 0-1.71-.221-2.5-.676-6.02-3.506-16.9-10.358-22-16.719-1.44-1.796-1.41-4.416.11-6.237l15.98-19.265c1.68-2.042 4.67-2.399 6.8-.824 5.02 3.727 14.16 10.617 19.02 14.922a4.957 4.957 0 0 1 .71 6.705c-5.58 7.553-11.16 15.722-13.97 19.905a5.04 5.04 0 0 1-4.15 2.189Zm-4.59-42.245c-.72 0-1.45.308-1.94.91l-15.98 19.266c-.76.922-.8 2.226-.08 3.124 5.05 6.287 16.6 13.385 21.34 16.141 1.14.664 2.6.332 3.34-.763 2.84-4.207 8.43-12.401 14.04-20.003a2.52 2.52 0 0 0-.37-3.396c-4.79-4.244-13.86-11.084-18.86-14.787a2.475 2.475 0 0 0-1.49-.492Zm237.11 480.2c-.3 0-.61-.012-.93-.049a9.425 9.425 0 0 1-6.47-3.481l-26.51-32.909a9.49 9.49 0 0 1 1.02-12.978l29.3-26.487a9.355 9.355 0 0 1 7-2.423 9.458 9.458 0 0 1 6.61 3.358l28.05 33.425c3.35 3.998 2.82 9.977-1.16 13.336l-30.83 25.957a9.267 9.267 0 0 1-6.08 2.251Zm-31.23-47.584a7.021 7.021 0 0 0-.76 9.608l26.51 32.908a6.972 6.972 0 0 0 4.78 2.583c1.9.185 3.74-.393 5.19-1.611l30.83-25.958c2.95-2.485 3.34-6.914.86-9.878l-28.05-33.425a6.888 6.888 0 0 0-4.89-2.485c-1.92-.123-3.77.504-5.18 1.796l-29.29 26.462Zm-113.59-10.125-1.92-1.538 13.82-17.333c.81-1.022.53-2.092-.01-2.756-.54-.664-1.54-1.157-2.71-.566l-15.61 8.033c-2.04 1.046-4.36.542-5.78-1.242-1.43-1.784-1.38-4.158.1-5.905l13.88-16.399c.87-1.021.58-2.116.04-2.793-.55-.676-1.55-1.193-2.73-.565l-40.24 20.483-1.12-2.19 40.23-20.483c2.02-1.07 4.35-.578 5.78 1.205 1.44 1.796 1.4 4.171-.07 5.93l-13.89 16.399c-.86 1.008-.59 2.103-.05 2.78.54.677 1.54 1.193 2.72.59l15.6-8.033c2-1.033 4.3-.553 5.73 1.181 1.43 1.735 1.44 4.097.04 5.856l-13.81 17.346Zm66.98 25.508-17.96 48.422 2.31.855 17.95-48.421-2.3-.856Zm28.17 10.519-2.32.817 20.71 58.846 2.32-.816-20.71-58.847Zm-.86 40.738-2.43.36 4.27 28.929 2.43-.359-4.27-28.93Zm-27.68-11.153-4.42 23.178 2.41.461 4.43-23.178-2.42-.461Zm-196.91-464.639-2.17 1.173 22.33 41.13 2.16-1.173-22.32-41.13Zm.14 21.857-2.37.68 6.9 23.978 2.36-.68-6.89-23.978Zm-11.13-17.958-2.13 36.033 2.45.146 2.14-36.033-2.46-.146Zm-65.025 13.972-2.374-.639 6.323-23.645c.394-1.489 1.734-2.411 3.272-2.251 1.526.16 2.645 1.353 2.731 2.878l.702 14.16a.56.56 0 0 0 .467.554c.172.037.467.049.652-.308l9.128-18.01 2.19 1.107-9.116 18.01a3.009 3.009 0 0 1-3.358 1.6 3.015 3.015 0 0 1-2.412-2.83l-.701-14.16c-.024-.442-.344-.541-.529-.553-.184-.025-.516.012-.627.43l-6.348 23.657Zm252.915-123.811-.38 2.43 36 5.739.39-2.43-36.01-5.739Zm2.48 11.021-.9 2.292 33.81 13.202.89-2.292-33.8-13.202Zm.47 9.501-1.86 1.605 23.9 27.779 1.87-1.605-23.91-27.779Zm-36.63 659.578-.14-.013-70.34-8.045.28-2.448 70.27 8.033c1.7-.025 2.62-1.193 2.93-2.276.31-1.095.1-2.596-1.4-3.482l-80.95-38.21c-2.52-1.501-3.47-4.318-2.41-6.926 1.06-2.608 3.72-3.973 6.45-3.309l64.2 14.283c1.85.442 3.06-.64 3.56-1.71.48-1.046.53-2.633-.9-3.74l-53.79-26.585 1.1-2.202 54.07 26.745c2.53 1.857 2.7 4.761 1.76 6.815-.95 2.054-3.28 3.801-6.34 3.076l-64.2-14.283c-1.94-.468-3.15.701-3.62 1.845-.47 1.132-.41 2.817 1.28 3.826l80.95 38.21c2.31 1.378 3.29 3.826 2.62 6.311-.71 2.485-2.81 4.085-5.38 4.085ZM590.132 761.965a5.45 5.45 0 0 1-.775-.049 5.394 5.394 0 0 1-3.752-2.399l-6.446-9.879c-1.612-2.46-.935-5.806 1.513-7.442l8.599-5.77c2.46-1.649 5.806-.997 7.467 1.439l5.967 8.735a5.397 5.397 0 0 1-.96 7.16l-8.107 6.913a5.347 5.347 0 0 1-3.506 1.292Zm2.153-23.977a2.96 2.96 0 0 0-1.636.492l-8.6 5.77a2.967 2.967 0 0 0-.824 4.06l6.447 9.878a2.937 2.937 0 0 0 2.042 1.304 2.895 2.895 0 0 0 2.325-.676l8.107-6.914a2.931 2.931 0 0 0 .517-3.9l-5.967-8.734c-.541-.837-1.476-1.28-2.411-1.28Zm21.168 24.912-13.469 14.117 1.78 1.698 13.469-14.116-1.78-1.699Zm-4.103 12.939-3.59 7.256 2.205 1.091 3.59-7.255-2.205-1.092Zm9.842-13.203-5.021 23.96 2.408.504 5.021-23.959-2.408-.505Zm28.009 19.345h-.172a3.886 3.886 0 0 1-3.543-2.669l-2.19-6.619 2.337-.775 2.19 6.619c.295.873 1.07.984 1.304.984.234 0 1.021-.025 1.39-.874l2.128-4.982a3.872 3.872 0 0 1 2.879-2.3 3.895 3.895 0 0 1 3.506 1.107l6.434 6.594c.566.578 1.255.516 1.723.258.467-.258.898-.812.713-1.599l-2.989-12.795 2.399-.553 2.989 12.794a3.86 3.86 0 0 1-1.919 4.306 3.882 3.882 0 0 1-4.675-.701l-6.434-6.594a1.383 1.383 0 0 0-1.292-.406 1.413 1.413 0 0 0-1.058.849l-2.128 4.982a3.87 3.87 0 0 1-3.592 2.374ZM488.613 683.35l-17.618 6.046.799 2.327 17.617-6.046-.798-2.327Zm-4.874 7.843-9.471 7.889 1.574 1.891 9.472-7.889-1.575-1.891Zm7.021.477-7.364 18.943 2.294.892 7.363-18.943-2.293-.892Zm-65.993-55.198c-.271 0-.554-.025-.824-.086l-2.129-.468.529-2.398 2.129.467c.393.086.799 0 1.119-.221a1.39 1.39 0 0 0 .591-.985l.221-1.722a3.926 3.926 0 0 1 1.661-2.706 3.898 3.898 0 0 1 3.125-.566l4.232 1.046c.455.11.922 0 1.267-.308.356-.308.529-.75.492-1.218l-.209-2.362a3.87 3.87 0 0 1 1.316-3.285 3.823 3.823 0 0 1 3.432-.848l2.768.652c.455.11.911-.013 1.267-.32.345-.308.529-.751.48-1.218a3.847 3.847 0 0 1 1.513-3.469 3.848 3.848 0 0 1 3.752-.529l3.174 1.218-.885 2.3-3.174-1.218a1.396 1.396 0 0 0-1.378.197 1.4 1.4 0 0 0-.554 1.279 3.849 3.849 0 0 1-1.304 3.297 3.816 3.816 0 0 1-3.444.861l-2.768-.652a1.474 1.474 0 0 0-1.267.308 1.4 1.4 0 0 0-.48 1.206l.209 2.362a3.862 3.862 0 0 1-1.341 3.297 3.909 3.909 0 0 1-3.469.824l-4.232-1.046a1.41 1.41 0 0 0-1.144.209 1.413 1.413 0 0 0-.615.997l-.222 1.722a3.9 3.9 0 0 1-1.624 2.67 3.744 3.744 0 0 1-2.214.713Zm803.113-401.171h-.09a3.142 3.142 0 0 1-2.83-1.92l-2-4.625a.698.698 0 0 0-.66-.443h-.01c-.15 0-.51.049-.67.455l-2.22 5.561-2.29-.911 2.22-5.56a3.187 3.187 0 0 1 2.92-2.005h.04c1.28 0 2.42.75 2.92 1.919l2 4.625c.16.382.5.431.65.443.13 0 .48-.024.66-.406l1.44-2.878a3.173 3.173 0 0 1 2.46-1.735 3.132 3.132 0 0 1 2.81 1.095l2.37 2.768c.26.295.58.258.7.234a.707.707 0 0 0 .55-.505l1.43-4.81a3.192 3.192 0 0 1 2.23-2.165 3.126 3.126 0 0 1 3 .75l4.65 4.355c.27.259.59.209.72.16.12-.037.4-.16.49-.529l.91-3.937a3.173 3.173 0 0 1 2.1-2.312 3.16 3.16 0 0 1 3.07.603l3.33 2.841c.3.246.6.173.73.123.12-.049.4-.184.46-.566l.63-3.899a3.176 3.176 0 0 1 5.3-1.821c.32.295.65.184.79.135a.688.688 0 0 0 .43-.664v-2.805h2.46v2.805c0 1.292-.72 2.399-1.91 2.916a3.143 3.143 0 0 1-3.44-.579.681.681 0 0 0-.73-.147.719.719 0 0 0-.48.566l-.62 3.899a3.172 3.172 0 0 1-2.05 2.485 3.119 3.119 0 0 1-3.16-.566l-3.33-2.841a.733.733 0 0 0-.7-.136.73.73 0 0 0-.48.529l-.91 3.937a3.174 3.174 0 0 1-2.18 2.337 3.172 3.172 0 0 1-3.11-.725l-4.65-4.355a.758.758 0 0 0-.69-.173c-.12.037-.41.148-.51.493l-1.44 4.81a3.182 3.182 0 0 1-2.38 2.202 3.163 3.163 0 0 1-3.08-1.046l-2.37-2.768a.716.716 0 0 0-.64-.246.75.75 0 0 0-.57.394l-1.44 2.878a3.124 3.124 0 0 1-2.83 1.76Z"/>
  <path fill="#000" d="m1224.28 216.598-1.24 2.126 11.74 6.848 1.24-2.125-11.74-6.849Zm11.06-4.525-1.2 2.151 15.26 8.477 1.2-2.151-15.26-8.477Zm13.95-1.512-1.05 2.223 12.56 5.958 1.05-2.223-12.56-5.958Zm-127 959.279-2.26-.96 3.77-8.86c.91-2.14 2.7-3.72 4.94-4.36 2.24-.64 4.6-.24 6.51 1.1l3.91 2.76c1.37.96 3.05 1.22 4.64.68 1.59-.53 2.78-1.75 3.3-3.34l.67-2.1c.77-2.4 2.67-4.26 5.07-4.98a7.63 7.63 0 0 1 6.98 1.34l3.97 3.16c1.37 1.08 3.1 1.41 4.76.9a5.114 5.114 0 0 0 3.43-3.42l1.02-3.29c.75-2.41 2.56-4.24 4.97-5 2.42-.78 4.95-.34 6.97 1.19l4.56 3.46c1.38 1.04 3.11 1.34 4.76.79 1.65-.54 2.87-1.8 3.36-3.46l1.71-5.82c.75-2.55 2.72-4.49 5.28-5.22 2.54-.71 5.25-.07 7.22 1.71l3.67 3.33a5.082 5.082 0 0 0 5.01 1.12c1.78-.54 3.09-1.94 3.54-3.74.65-2.68 2.62-4.76 5.27-5.53 2.65-.78 5.43-.11 7.43 1.79l5.71 5.43-1.7 1.78-5.7-5.42c-1.37-1.29-3.25-1.75-5.05-1.22a5.145 5.145 0 0 0-3.58 3.76 7.57 7.57 0 0 1-5.19 5.52c-2.61.8-5.38.18-7.39-1.66l-3.67-3.34a5.107 5.107 0 0 0-4.9-1.15 5.17 5.17 0 0 0-3.58 3.53l-1.71 5.81a7.632 7.632 0 0 1-4.94 5.11c-2.4.79-5.02.34-7.03-1.17l-4.56-3.46a5.183 5.183 0 0 0-4.72-.81 5.08 5.08 0 0 0-3.37 3.4l-1.03 3.28a7.682 7.682 0 0 1-5.05 5.05c-2.41.73-5.03.24-7.01-1.33l-3.98-3.16a5.05 5.05 0 0 0-4.73-.91c-1.66.5-2.92 1.73-3.45 3.38l-.67 2.1a7.575 7.575 0 0 1-4.86 4.92 7.52 7.52 0 0 1-6.84-1.01l-3.92-2.75a5.16 5.16 0 0 0-4.41-.75 5.146 5.146 0 0 0-3.36 2.96l-3.77 8.86Zm-80.39-60.96h-2.46v-11.79c0-1.63-.84-3.08-2.23-3.9a4.5 4.5 0 0 0-4.49-.08l-5.2 2.87c-2.19 1.2-4.79 1.17-6.93-.11a6.925 6.925 0 0 1-3.43-6.02v-4.06c0-1.54-.74-2.91-2.02-3.77a4.395 4.395 0 0 0-4.25-.41l-6.68 2.79c-2.17.91-4.628.68-6.572-.62a7.008 7.008 0 0 1-3.125-5.82v-1.34c0-1.54-.726-2.91-2.005-3.77-1.279-.86-2.829-1.02-4.244-.43l-6.397 2.62a6.962 6.962 0 0 1-6.545-.66 6.983 6.983 0 0 1-3.1-5.81c0-1.55-.738-2.93-2.03-3.78-1.292-.86-2.854-.99-4.269-.39l-4.97 2.1a6.965 6.965 0 0 1-5.917-.22 6.954 6.954 0 0 1-3.629-4.67l-.64-2.81a4.525 4.525 0 0 0-6.237-3.14l-8.833 3.88-.984-2.25 8.833-3.88a7.037 7.037 0 0 1 5.966.16 7.02 7.02 0 0 1 3.679 4.7l.639 2.81a4.503 4.503 0 0 0 2.35 3.02c1.193.62 2.596.67 3.838.15l4.97-2.1a6.977 6.977 0 0 1 6.594.61 7 7 0 0 1 3.125 5.83c0 1.54.726 2.91 2.005 3.77 1.28.86 2.817 1.01 4.244.43l6.397-2.62a6.962 6.962 0 0 1 6.545.66 6.983 6.983 0 0 1 3.1 5.81v1.34c0 1.54.738 2.92 2.018 3.78 1.284.86 2.844 1.01 4.254.4l6.68-2.79c2.17-.9 4.63-.66 6.57.63a6.958 6.958 0 0 1 3.11 5.82v4.06c0 1.62.84 3.07 2.23 3.9a4.5 4.5 0 0 0 4.49.07l5.2-2.87a6.945 6.945 0 0 1 6.93.11 6.925 6.925 0 0 1 3.43 6.02v11.77h-.01Zm276.64-377.153c-11.37 18.453-41.63 28.122-56.37 8.291-16.37-22.045-4.7-68.928 29.38-70.897 7.77-.455 15.52 2.092 21.65 7.16 15.55 12.88 18.08 34.754 5.34 55.446Z"/>
  <path fill="#74BAAB" d="M1279.68 707.295c-4.19 12.929-8.98 27.224-15 19.892-3.74-4.564-6.02-15.537-3.35-25.97 2.11-8.217 7.99-16.103 13.83-20.236 3.03-2.141 6.09-2.633 8.54-1.329 6.25 3.309.66 13.139-4.02 27.643Zm-236.25-359.11c-6.31 6.754-13.41 14.147-16.33 6.446-1.81-4.785-.96-13.212 3.59-18.982 3.58-4.552 10.01-7.135 15.5-7.221 2.86-.037 5.33 1.045 6.93 3.051 4.04 5.105-2.62 9.128-9.69 16.706ZM631.097 719.056c.086-4.417.258-9.313 3.642-7.517 2.103 1.12 6.151 9.99 1.513 15.415-.874 1.021-2.165 1.341-3.334 1.132-2.965-.517-1.919-4.085-1.821-9.03Z"/>
  <path fill="#000" d="M719.611 833.822c.529-1.145-.418-2.264-2.78-3.137-4.712-1.735-13.877-2.978-31.654-1.747-16.386 1.131-24.616 4.588-28.737 7.553-2.202 1.587-2.03 2.78-.013 3.678 24.777 4.208 50.205.911 63.184-6.347Zm430.649-105.355c-2.06-9.165-7.7-37.324-7.76-37.607l2.41-.48c.06.283 5.69 28.405 7.75 37.546l-2.4.541Zm24.93 2.989c-2.53-3.678-4.74-8.574-6.07-13.421-.47-1.698-.9-3.347-1.31-4.934-2.08-7.959-3.71-14.258-7.69-17.887l1.66-1.82c4.52 4.121 6.24 10.727 8.42 19.08.41 1.575.84 3.211 1.3 4.896 1.27 4.601 3.35 9.227 5.74 12.684l-2.05 1.402Zm11.68.566-2.46-.074c.06-1.931-.13-4.453-.31-7.123-.18-2.743-.41-5.843-.41-8.845 0-5.474 1.36-10.813 3.62-14.307l2.07 1.341c-2.02 3.112-3.23 7.947-3.23 12.966 0 2.903.2 5.844.4 8.673.2 2.731.38 5.315.32 7.369Zm79.7 97.851c-2.6 0-5.18-1.095-6.98-3.198l-20.49-23.94 1.87-1.6 20.49 23.94c2.37 2.781 6.59 3.15 9.41.812l61.02-55.568a47.491 47.491 0 0 1 11.2-7.135l1.02 2.239a45.152 45.152 0 0 0-10.6 6.741l-61.03 55.581a9.252 9.252 0 0 1-5.91 2.128Zm4.06 107.015c-10.51 0-21.6-4.539-31.17-16.669l-23.57-26.093 1.82-1.648 23.63 26.154c17.3 21.91 39.75 17.567 53.71 7.221 11.17-8.279 26.72-21.516 46.22-39.354l1.66 1.821c-19.56 17.887-35.18 31.186-46.41 39.514-7.11 5.253-16.27 9.054-25.89 9.054Zm-153.17-201.089c-1.37-2.399-2.5-4.798-3.67-7.8l2.3-.886c1.14 2.916 2.18 5.155 3.51 7.468l-2.14 1.218Zm14.49-4.306c-1.99-3.728-5.73-11.453-8.39-21.27l2.38-.64c2.58 9.583 6.23 17.112 8.18 20.741l-2.17 1.169Zm169.81 36.119a54.173 54.173 0 0 1-47.65-28.356l2.17-1.181a51.731 51.731 0 0 0 45.48 27.077v2.46ZM968.249 397.393c-1.956 0-4.355-1.058-6.902-3.1-2.805-2.239-7.147-5.745-10.702-8.599l1.55-1.919c3.555 2.866 7.885 6.36 10.69 8.599 2.62 2.103 5.167 3.038 6.336 2.325 1.058-.64 1.304-2.817.701-5.991-.726-3.789-.541-6.828.566-9.055l2.202 1.095c-.591 1.194-1.132 3.457-.357 7.492.849 4.429.234 7.308-1.845 8.562-.652.394-1.415.591-2.239.591Zm90.021 13.434-1.75-1.723 32.94-33.732c11.56-11.847 30.31-12.487 42.66-1.464l-1.63 1.833c-11.37-10.149-28.62-9.559-39.26 1.341l-32.96 33.745Zm73.41 6.171-33.43 33.588 1.75 1.736 33.42-33.589-1.74-1.735ZM602.655 736.045l-7.504-11.109c-2.645-3.494-6.569-5.77-10.986-6.348a16.416 16.416 0 0 0-12.289 3.371l-1.514-1.931c4.035-3.162 9.042-4.54 14.123-3.876 5.081.665 9.571 3.273 12.671 7.357l7.541 11.158-2.042 1.378Zm41.076 59.532-1.458 28.652 2.458.125 1.457-28.652-2.457-.125Zm74.044-35.128-2.386.602 12.026 47.717 2.386-.601-12.026-47.718Z"/>
</svg>
